<svg width="926" height="926" viewBox="0 0 926 926" fill="none" xmlns="http://www.w3.org/2000/svg">
<path d="M77 341.988C77 317.33 81.842 295.46 91.5261 276.38C101.504 257.299 115.003 242.622 132.023 232.348C149.044 222.074 167.971 216.937 188.807 216.937C204.653 216.937 219.766 220.459 234.146 227.504C248.525 234.256 259.97 243.356 268.48 254.804V139H330.986V464.837H268.48V428.731C260.85 440.766 250.139 450.453 236.347 457.792C222.554 465.131 206.561 468.8 188.367 468.8C167.825 468.8 149.044 463.516 132.023 452.948C115.003 442.381 101.504 427.557 91.5261 408.476C81.842 389.102 77 366.939 77 341.988ZM268.92 342.868C268.92 327.897 265.986 315.128 260.117 304.56C254.248 293.699 246.324 285.48 236.347 279.902C226.369 274.032 215.658 271.096 204.213 271.096C192.769 271.096 182.204 273.885 172.52 279.462C162.836 285.04 154.913 293.259 148.75 304.12C142.881 314.688 139.946 327.31 139.946 341.988C139.946 356.665 142.881 369.581 148.75 380.736C154.913 391.597 162.836 399.963 172.52 405.834C182.498 411.705 193.062 414.64 204.213 414.64C215.658 414.64 226.369 411.852 236.347 406.274C246.324 400.403 254.248 392.184 260.117 381.616C265.986 370.755 268.92 357.839 268.92 342.868Z" fill="white"/>
<path d="M359.922 344.189C359.922 319.531 364.764 297.956 374.448 279.462C384.425 260.675 398.071 246.291 415.385 236.311C432.992 226.037 452.8 220.9 474.81 220.9C497.699 220.9 517.361 226.183 533.794 236.751C550.521 247.319 562.553 260.822 569.89 277.261V224.422H600.702V464.837H569.89V411.558C562.26 427.997 550.081 441.647 533.354 452.508C516.921 463.076 497.259 468.36 474.37 468.36C452.654 468.36 432.992 463.223 415.385 452.948C398.071 442.674 384.425 428.144 374.448 409.357C364.764 390.57 359.922 368.847 359.922 344.189ZM569.89 344.63C569.89 325.255 565.928 308.23 558.005 293.552C550.081 278.875 539.223 267.574 525.431 259.648C511.932 251.722 496.966 247.759 480.532 247.759C463.512 247.759 448.252 251.575 434.753 259.207C421.254 266.84 410.543 277.994 402.619 292.672C394.99 307.056 391.175 324.228 391.175 344.189C391.175 363.857 394.99 381.176 402.619 396.147C410.543 410.824 421.254 422.126 434.753 430.052C448.252 437.684 463.512 441.5 480.532 441.5C496.966 441.5 511.932 437.537 525.431 429.611C539.223 421.686 550.081 410.384 558.005 395.707C565.928 381.029 569.89 364.004 569.89 344.63Z" fill="white"/>
<path d="M734.433 434.895L815.426 224.422H848L751.6 464.837H716.825L620.425 224.422H653.439L734.433 434.895Z" fill="white"/>
<path d="M77 617.188C77 592.53 81.842 570.661 91.5261 551.58C101.504 532.5 115.003 517.822 132.023 507.548C149.044 497.274 167.971 492.137 188.807 492.137C204.653 492.137 219.766 495.659 234.146 502.705C248.525 509.456 259.97 518.556 268.48 530.004V464.837H330.986V740.037H268.48V703.931C260.85 715.966 250.139 725.653 236.347 732.992C222.554 740.331 206.561 744 188.367 744C167.825 744 149.044 738.716 132.023 728.149C115.003 717.581 101.504 702.757 91.5261 683.676C81.842 664.302 77 642.139 77 617.188ZM268.92 618.068C268.92 603.098 265.986 590.328 260.117 579.761C254.248 568.899 246.324 560.68 236.347 555.103C226.369 549.232 215.658 546.296 204.213 546.296C192.769 546.296 182.204 549.085 172.52 554.662C162.836 560.24 154.913 568.459 148.75 579.32C142.881 589.888 139.946 602.51 139.946 617.188C139.946 631.865 142.881 644.781 148.75 655.936C154.913 666.797 162.836 675.163 172.52 681.034C182.498 686.905 193.062 689.841 204.213 689.841C215.658 689.841 226.369 687.052 236.347 681.475C246.324 675.604 254.248 667.384 260.117 656.817C265.986 645.955 268.92 633.039 268.92 618.068Z" fill="white"/>
<path d="M479.212 743.56C456.615 743.56 436.22 738.569 418.026 728.589C400.125 718.315 385.892 703.931 375.328 685.437C365.057 666.65 359.922 644.781 359.922 619.83C359.922 594.878 365.204 573.156 375.768 554.662C386.333 535.875 400.712 521.492 418.906 511.511C437.101 501.237 457.496 496.1 480.092 496.1C502.688 496.1 523.083 501.237 541.278 511.511C559.765 521.492 574.145 535.875 584.416 554.662C594.98 573.156 600.262 594.878 600.262 619.83C600.262 644.488 594.98 666.21 584.416 684.997C573.851 703.784 559.325 718.315 540.837 728.589C522.35 738.569 501.808 743.56 479.212 743.56ZM479.212 716.7C495.058 716.7 509.731 713.178 523.23 706.132C536.729 698.794 547.587 687.933 555.804 673.549C564.314 658.871 568.569 640.965 568.569 619.83C568.569 598.694 564.461 580.935 556.244 566.551C548.027 551.874 537.169 541.012 523.67 533.967C510.171 526.629 495.498 522.959 479.652 522.959C463.805 522.959 449.132 526.629 435.633 533.967C422.134 541.012 411.276 551.874 403.06 566.551C395.136 580.935 391.175 598.694 391.175 619.83C391.175 640.965 395.136 658.871 403.06 673.549C411.276 687.933 421.988 698.794 435.193 706.132C448.692 713.178 463.365 716.7 479.212 716.7Z" fill="white"/>
<path d="M748.869 495.219C767.063 495.219 783.35 499.035 797.73 506.667C812.402 514.3 823.847 526.041 832.064 541.893C840.574 557.451 844.829 576.532 844.829 599.135V740.037H814.457V602.657C814.457 576.532 807.854 556.57 794.648 542.774C781.736 528.977 763.982 522.079 741.386 522.079C718.203 522.079 699.715 529.417 685.923 544.095C672.13 558.772 665.234 580.348 665.234 608.822V740.037H634.421V414.2H665.234V540.572C672.864 526.188 684.015 515.033 698.688 507.108C713.654 499.182 730.381 495.219 748.869 495.219Z" fill="white"/>
</svg>
