<svg width="926" height="926" viewBox="0 0 926 926" fill="none" xmlns="http://www.w3.org/2000/svg">
<g clip-path="url(#clip0_595_688)">
<path d="M462.548 160C380.388 160 370.077 160.359 337.808 161.828C305.602 163.303 283.619 168.401 264.383 175.882C244.486 183.609 227.608 193.946 210.792 210.767C193.965 227.582 183.628 244.461 175.876 264.352C168.376 283.593 163.271 305.583 161.821 337.777C160.378 370.046 160 380.363 160 462.523C160 544.684 160.366 554.963 161.828 587.232C163.309 619.439 168.408 641.422 175.882 660.657C183.616 680.555 193.952 697.433 210.773 714.248C227.582 731.076 244.461 741.437 264.345 749.164C283.593 756.645 305.583 761.744 337.783 763.219C370.052 764.688 380.357 765.047 462.511 765.047C544.677 765.047 554.957 764.688 587.226 763.219C619.432 761.744 641.441 756.645 660.689 749.164C680.58 741.437 697.433 731.076 714.242 714.248C731.069 697.433 741.406 680.555 749.158 660.664C756.595 641.422 761.7 619.432 763.212 587.239C764.662 554.97 765.04 544.684 765.04 462.523C765.04 380.363 764.662 370.052 763.212 337.783C761.7 305.577 756.595 283.593 749.158 264.358C741.406 244.461 731.069 227.582 714.242 210.767C697.414 193.939 680.586 183.603 660.67 175.882C641.384 168.401 619.388 163.303 587.182 161.828C554.913 160.359 544.639 160 462.454 160H462.548ZM435.41 214.517C443.464 214.505 452.452 214.517 462.548 214.517C543.322 214.517 552.896 214.807 584.793 216.257C614.289 217.606 630.298 222.534 640.962 226.675C655.079 232.158 665.145 238.713 675.727 249.301C686.315 259.889 692.87 269.974 698.365 284.091C702.506 294.743 707.441 310.751 708.783 340.247C710.233 372.138 710.548 381.718 710.548 462.454C710.548 543.19 710.233 552.77 708.783 584.661C707.435 614.157 702.506 630.165 698.365 640.817C692.882 654.935 686.315 664.987 675.727 675.569C665.138 686.158 655.086 692.712 640.962 698.195C630.31 702.355 614.289 707.271 584.793 708.62C552.902 710.069 543.322 710.385 462.548 710.385C381.768 710.385 372.195 710.069 340.304 708.62C310.808 707.259 294.799 702.33 284.129 698.189C270.011 692.706 259.927 686.151 249.339 675.563C238.751 664.975 232.196 654.916 226.7 640.792C222.559 630.14 217.624 614.132 216.282 584.636C214.832 552.745 214.542 543.165 214.542 462.378C214.542 381.592 214.832 372.063 216.282 340.172C217.631 310.676 222.559 294.667 226.7 284.003C232.183 269.885 238.751 259.801 249.339 249.213C259.927 238.625 270.011 232.07 284.129 226.574C294.793 222.414 310.808 217.498 340.304 216.143C368.212 214.883 379.027 214.505 435.41 214.442V214.517ZM624.033 264.749C603.991 264.749 587.73 280.99 587.73 301.039C587.73 321.081 603.991 337.342 624.033 337.342C644.075 337.342 660.336 321.081 660.336 301.039C660.336 280.997 644.075 264.736 624.033 264.736V264.749ZM462.548 307.165C376.752 307.165 307.19 376.727 307.19 462.523C307.19 548.32 376.752 617.85 462.548 617.85C548.345 617.85 617.882 548.32 617.882 462.523C617.882 376.727 548.345 307.165 462.548 307.165ZM462.548 361.682C518.238 361.682 563.39 406.828 563.39 462.523C563.39 518.213 518.238 563.365 462.548 563.365C406.853 563.365 361.707 518.213 361.707 462.523C361.707 406.828 406.853 361.682 462.548 361.682Z" fill="white"/>
</g>
<defs>
<clipPath id="clip0_595_688">
<rect width="605.058" height="605.04" fill="white" transform="translate(160 160)"/>
</clipPath>
</defs>
</svg>
