<svg width="926" height="926" viewBox="0 0 926 926" fill="none" xmlns="http://www.w3.org/2000/svg">
<path d="M716.061 166.314C739.02 166.314 759.278 186.572 759.278 210.882V728.138C759.278 752.447 739.02 771.355 716.061 771.355H196.105C173.146 771.355 154.238 752.447 154.238 728.138V210.882C154.238 186.572 173.146 166.314 196.105 166.314H716.061ZM336.561 684.92V397.256H247.425V684.92H336.561ZM291.993 356.74C320.354 356.74 343.313 333.781 343.313 305.42C343.313 277.058 320.354 252.749 291.993 252.749C262.281 252.749 239.322 277.058 239.322 305.42C239.322 333.781 262.281 356.74 291.993 356.74ZM672.844 684.92V526.908C672.844 449.927 655.287 389.153 564.801 389.153C521.584 389.153 491.872 413.463 479.718 436.422H478.367V397.256H393.283V684.92H482.419V543.114C482.419 505.299 489.171 468.835 536.44 468.835C582.358 468.835 582.358 512.052 582.358 544.465V684.92H672.844Z" fill="white"/>
</svg>
