<svg width="369" height="290" viewBox="0 0 369 290" fill="none" xmlns="http://www.w3.org/2000/svg">
<path d="M0 97.1197C0 85.3221 2.31739 74.8587 6.95217 65.7296C11.7274 56.6005 18.188 49.5781 26.334 44.6624C34.48 39.7468 43.5389 37.2889 53.5107 37.2889C61.0948 37.2889 68.3279 38.9743 75.2099 42.345C82.0918 45.5753 87.5693 49.9292 91.6423 55.4067V0H121.558V155.897H91.6423V138.622C87.9906 144.38 82.8643 149.015 76.2632 152.526C69.6622 156.038 62.0078 157.793 53.3 157.793C43.4686 157.793 34.48 155.265 26.334 150.209C18.188 145.153 11.7274 138.06 6.95217 128.931C2.31739 119.662 0 109.058 0 97.1197ZM91.8529 97.5411C91.8529 90.3782 90.4485 84.2687 87.6395 79.2126C84.8306 74.016 81.0385 70.0835 76.2632 67.415C71.488 64.606 66.3617 63.2016 60.8842 63.2016C55.4067 63.2016 50.3506 64.5358 45.7158 67.2043C41.081 69.8728 37.2889 73.8054 34.3395 79.0019C31.5306 84.0581 30.1261 90.0973 30.1261 97.1197C30.1261 104.142 31.5306 110.322 34.3395 115.659C37.2889 120.855 41.081 124.858 45.7158 127.667C50.491 130.476 55.5472 131.881 60.8842 131.881C66.3617 131.881 71.488 130.546 76.2632 127.878C81.0385 125.069 84.8306 121.136 87.6395 116.08C90.4485 110.884 91.8529 104.704 91.8529 97.5411Z" fill="white"/>
<path d="M135.406 98.1731C135.406 86.3755 137.723 76.0525 142.358 67.2043C147.133 58.2157 153.664 51.3337 161.951 46.5585C170.378 41.6428 179.858 39.185 190.391 39.185C201.346 39.185 210.756 41.713 218.621 46.7692C226.627 51.8253 232.385 58.2859 235.897 66.151V40.8703H250.644V155.897H235.897V130.406C232.245 138.271 226.416 144.802 218.411 149.998C210.546 155.054 201.136 157.583 190.181 157.583C179.788 157.583 170.378 155.125 161.951 150.209C153.664 145.293 147.133 138.341 142.358 129.353C137.723 120.364 135.406 109.971 135.406 98.1731ZM235.897 98.3838C235.897 89.1142 234 80.9682 230.208 73.9458C226.416 66.9234 221.22 61.5162 214.619 57.7241C208.158 53.932 200.995 52.0359 193.13 52.0359C184.984 52.0359 177.681 53.8618 171.22 57.5134C164.76 61.1651 159.633 66.5021 155.841 73.5245C152.19 80.4064 150.364 88.6226 150.364 98.1731C150.364 107.583 152.19 115.87 155.841 123.032C159.633 130.055 164.76 135.462 171.22 139.254C177.681 142.906 184.984 144.732 193.13 144.732C200.995 144.732 208.158 142.836 214.619 139.043C221.22 135.251 226.416 129.844 230.208 122.822C234 115.799 235.897 107.653 235.897 98.3838Z" fill="white"/>
<path d="M314.647 141.572L353.41 40.8703H369L322.863 155.897H306.22L260.083 40.8703H275.883L314.647 141.572Z" fill="white"/>
<path d="M0 228.79C0 216.992 2.31739 206.529 6.95217 197.4C11.7274 188.27 18.188 181.248 26.334 176.332C34.48 171.417 43.5389 168.959 53.5107 168.959C61.0948 168.959 68.3279 170.644 75.2099 174.015C82.0918 177.245 87.5693 181.599 91.6423 187.077V155.897H121.558V287.567H91.6423V270.292C87.9906 276.05 82.8643 280.685 76.2632 284.196C69.6622 287.708 62.0078 289.463 53.3 289.463C43.4686 289.463 34.48 286.935 26.334 281.879C18.188 276.823 11.7274 269.73 6.95217 260.601C2.31739 251.332 0 240.728 0 228.79ZM91.8529 229.211C91.8529 222.048 90.4485 215.939 87.6395 210.883C84.8306 205.686 81.0385 201.753 76.2632 199.085C71.488 196.276 66.3617 194.871 60.8842 194.871C55.4067 194.871 50.3506 196.206 45.7158 198.874C41.081 201.543 37.2889 205.475 34.3395 210.672C31.5306 215.728 30.1261 221.767 30.1261 228.79C30.1261 235.812 31.5306 241.992 34.3395 247.329C37.2889 252.525 41.081 256.528 45.7158 259.337C50.491 262.146 55.5472 263.551 60.8842 263.551C66.3617 263.551 71.488 262.216 76.2632 259.548C81.0385 256.739 84.8306 252.806 87.6395 247.75C90.4485 242.554 91.8529 236.374 91.8529 229.211Z" fill="white"/>
<path d="M192.498 289.252C181.684 289.252 171.923 286.865 163.215 282.09C154.647 277.174 147.836 270.292 142.78 261.444C137.864 252.455 135.406 241.992 135.406 230.054C135.406 218.116 137.934 207.722 142.99 198.874C148.046 189.886 154.928 183.004 163.636 178.228C172.344 173.313 182.105 170.855 192.919 170.855C203.734 170.855 213.495 173.313 222.203 178.228C231.051 183.004 237.933 189.886 242.849 198.874C247.905 207.722 250.433 218.116 250.433 230.054C250.433 241.851 247.905 252.244 242.849 261.233C237.793 270.222 230.84 277.174 221.992 282.09C213.144 286.865 203.313 289.252 192.498 289.252ZM192.498 276.401C200.082 276.401 207.105 274.716 213.565 271.345C220.026 267.834 225.223 262.638 229.155 255.756C233.228 248.733 235.265 240.166 235.265 230.054C235.265 219.941 233.298 211.444 229.366 204.562C225.433 197.54 220.237 192.343 213.776 188.973C207.315 185.461 200.293 183.706 192.709 183.706C185.125 183.706 178.102 185.461 171.642 188.973C165.181 192.343 159.984 197.54 156.052 204.562C152.26 211.444 150.364 219.941 150.364 230.054C150.364 240.166 152.26 248.733 156.052 255.756C159.984 262.638 165.111 267.834 171.431 271.345C177.892 274.716 184.914 276.401 192.498 276.401Z" fill="white"/>
<path d="M321.556 170.434C330.264 170.434 338.059 172.259 344.941 175.911C351.963 179.563 357.441 185.181 361.373 192.765C365.446 200.208 367.483 209.338 367.483 220.152V287.567H352.946V221.837C352.946 209.338 349.786 199.787 343.466 193.186C337.286 186.585 328.789 183.285 317.975 183.285C306.879 183.285 298.031 186.796 291.43 193.818C284.829 200.841 281.528 211.163 281.528 224.787V287.567H266.781V131.67H281.528V192.133C285.18 185.251 290.517 179.914 297.539 176.122C304.702 172.33 312.708 170.434 321.556 170.434Z" fill="white"/>
</svg>
